# xmcd
#
# Track frame offsets:
# 150
# 14471
# 27974
# 47037
# 63330
# 88869
#
# Disc length: 1419 seconds
#
#
# Revision: 0
# Processed by: cddbd v1.5.2PL0 Copyright (c) Steve Scherf et al.
# Submitted via: Nero 7, 11, 10, 0 
#
DISCID=47058906
DTITLE=Alan Haynes - Seventh Son
DYEAR=1984
DGENRE=Blues
TTITLE0=Anything From You
TTITLE1=Sick and Tired
TTITLE2=Sunny
TTITLE3=Seventh Son
TTITLE4=Mother Earth
TTITLE5=Stevie's Shuffle
EXTD=
EXTT0=Anything From You
EXTT1=Sick and Tired
EXTT2=Sunny
EXTT3=Seventh Son
EXTT4=Mother Earth
EXTT5=Stevie's Shuffle
PLAYORDER=
